/* XPM */
static char * charlix_xpm[] = {
"50 50 789 2",
"  	c None",
". 	c #C49A62",
"+ 	c #90785E",
"@ 	c #83664D",
"# 	c #A26F46",
"$ 	c #C48044",
"% 	c #9B7F5D",
"& 	c #564636",
"* 	c #2E2923",
"= 	c #1A1816",
"- 	c #100E0C",
"; 	c #110C09",
"> 	c #1B140E",
", 	c #4A3F35",
"' 	c #92755D",
") 	c #A6754D",
"! 	c #50463D",
"~ 	c #1D1C1B",
"{ 	c #090909",
"] 	c #040404",
"^ 	c #030303",
"/ 	c #1D1915",
"( 	c #6F553F",
"_ 	c #B58C68",
": 	c #494038",
"< 	c #101010",
"[ 	c #191919",
"} 	c #1E1E1E",
"| 	c #111111",
"1 	c #181613",
"2 	c #7B5C41",
"3 	c #6E5641",
"4 	c #0F0F0F",
"5 	c #18130D",
"6 	c #5C5955",
"7 	c #9FA09F",
"8 	c #6F6D6A",
"9 	c #151515",
"0 	c #777777",
"a 	c #858584",
"b 	c #89663B",
"c 	c #53493E",
"d 	c #2C2824",
"e 	c #312A23",
"f 	c #9D7553",
"g 	c #BA9A77",
"h 	c #3B342E",
"i 	c #1A140E",
"j 	c #867563",
"k 	c #DBDADA",
"l 	c #7C7D7D",
"m 	c #676563",
"n 	c #2C2A27",
"o 	c #3A3733",
"p 	c #5C5C5C",
"q 	c #A9AAAA",
"r 	c #FAEBD0",
"s 	c #CEA363",
"t 	c #5D5349",
"u 	c #4A4947",
"v 	c #76675B",
"w 	c #D29E5D",
"x 	c #816246",
"y 	c #312417",
"z 	c #4B3E30",
"A 	c #B9987A",
"B 	c #D4BAA1",
"C 	c #39200D",
"D 	c #261F1B",
"E 	c #705130",
"F 	c #644626",
"G 	c #1D1308",
"H 	c #574F47",
"I 	c #FAF9F6",
"J 	c #F6D695",
"K 	c #9B794F",
"L 	c #4F4D4B",
"M 	c #615C55",
"N 	c #8D745F",
"O 	c #C0894C",
"P 	c #836851",
"Q 	c #583B1F",
"R 	c #412D19",
"S 	c #7E552C",
"T 	c #ED8D28",
"U 	c #F8831B",
"V 	c #F16C04",
"W 	c #EE6B06",
"X 	c #EC720D",
"Y 	c #EB801A",
"Z 	c #E99D43",
"` 	c #EEBB6D",
" .	c #FCD88F",
"..	c #FBD68A",
"+.	c #C5964F",
"@.	c #473D32",
"#.	c #4F4B48",
"$.	c #696560",
"%.	c #8A725E",
"&.	c #AF8C6F",
"*.	c #6E6359",
"=.	c #56391C",
"-.	c #533211",
";.	c #523213",
">.	c #C77518",
",.	c #F88E0F",
"'.	c #F4871E",
").	c #F78413",
"!.	c #F19B33",
"~.	c #FABF59",
"{.	c #FCD588",
"].	c #FCD78B",
"^.	c #F9D383",
"/.	c #CD9741",
"(.	c #533B22",
"_.	c #322F2C",
":.	c #4D4741",
"<.	c #656059",
"[.	c #856F5F",
"}.	c #C39562",
"|.	c #A28065",
"1.	c #7F7064",
"2.	c #635343",
"3.	c #553617",
"4.	c #583818",
"5.	c #E77D0D",
"6.	c #FB8303",
"7.	c #F4860F",
"8.	c #F48D1D",
"9.	c #F79B2D",
"0.	c #FAB54F",
"a.	c #FCC76E",
"b.	c #FCD487",
"c.	c #F8D285",
"d.	c #F6CB74",
"e.	c #F8B84C",
"f.	c #CD7F22",
"g.	c #6A451E",
"h.	c #272625",
"i.	c #252423",
"j.	c #393632",
"k.	c #534A40",
"l.	c #6D5F54",
"m.	c #A2856A",
"n.	c #A27B59",
"o.	c #7F7166",
"p.	c #696057",
"q.	c #5B432A",
"r.	c #533312",
"s.	c #5E3B17",
"t.	c #B56728",
"u.	c #F77003",
"v.	c #F87603",
"w.	c #F77809",
"x.	c #D46609",
"y.	c #995313",
"z.	c #AA6118",
"A.	c #D27D20",
"B.	c #FB9B28",
"C.	c #FB9825",
"D.	c #F58D24",
"E.	c #A9651F",
"F.	c #60472B",
"G.	c #100F0E",
"H.	c #060606",
"I.	c #10100F",
"J.	c #1D1B19",
"K.	c #332C26",
"L.	c #534A42",
"M.	c #A0836D",
"N.	c #AD8763",
"O.	c #7F6F62",
"P.	c #605951",
"Q.	c #40352A",
"R.	c #2D1E0F",
"S.	c #1D140C",
"T.	c #140F0B",
"U.	c #120E0B",
"V.	c #0F0D0A",
"W.	c #0E0B09",
"X.	c #17120D",
"Y.	c #542B08",
"Z.	c #C95D05",
"`.	c #E36B04",
" +	c #DE7311",
".+	c #100903",
"++	c #351D06",
"@+	c #BE6A18",
"#+	c #FB8D22",
"$+	c #F88D24",
"%+	c #77481A",
"&+	c #302417",
"*+	c #130F0B",
"=+	c #040403",
"-+	c #0B0B0B",
";+	c #1E1D1C",
">+	c #473E37",
",+	c #977B65",
"'+	c #B38A63",
")+	c #7C6A5C",
"!+	c #514C45",
"~+	c #26211C",
"{+	c #070606",
"]+	c #201204",
"^+	c #6F3B0B",
"/+	c #DD7C1D",
"(+	c #975616",
"_+	c #8D5115",
":+	c #E98522",
"<+	c #E28120",
"[+	c #60370F",
"}+	c #060403",
"|+	c #070707",
"1+	c #1D1A18",
"2+	c #52483F",
"3+	c #9F7251",
"4+	c #D7AE7F",
"5+	c #8E7662",
"6+	c #5A534C",
"7+	c #26221E",
"8+	c #050403",
"9+	c #100A05",
"0+	c #804913",
"a+	c #864D14",
"b+	c #311D09",
"c+	c #040303",
"d+	c #0C0B0A",
"e+	c #11100E",
"f+	c #090808",
"g+	c #332A23",
"h+	c #866C55",
"i+	c #93755D",
"j+	c #3D3935",
"k+	c #11100F",
"l+	c #0E0E0E",
"m+	c #131313",
"n+	c #151514",
"o+	c #35302A",
"p+	c #4D4944",
"q+	c #3A3734",
"r+	c #221F1C",
"s+	c #0C0C0C",
"t+	c #1F1B17",
"u+	c #746357",
"v+	c #C59B6D",
"w+	c #CAAE86",
"x+	c #8E7656",
"y+	c #695539",
"z+	c #816E53",
"A+	c #3F362C",
"B+	c #473526",
"C+	c #765433",
"D+	c #272727",
"E+	c #0B0B0A",
"F+	c #221F1B",
"G+	c #383533",
"H+	c #3E3A36",
"I+	c #2A2724",
"J+	c #111010",
"K+	c #5D402C",
"L+	c #996847",
"M+	c #988574",
"N+	c #8E6744",
"O+	c #664E3A",
"P+	c #42372D",
"Q+	c #1E1A17",
"R+	c #0A0A09",
"S+	c #1C1916",
"T+	c #786B62",
"U+	c #D3AB83",
"V+	c #585959",
"W+	c #060605",
"X+	c #201D1B",
"Y+	c #48423D",
"Z+	c #675646",
"`+	c #856E50",
" @	c #8C734E",
".@	c #77604B",
"+@	c #5F5247",
"@@	c #474440",
"#@	c #211F1E",
"$@	c #553C2A",
"%@	c #CAA067",
"&@	c #BC8C5D",
"*@	c #936F46",
"=@	c #6C5B4A",
"-@	c #807973",
";@	c #BA9D78",
">@	c #696A6A",
",@	c #080807",
"'@	c #302B26",
")@	c #76624F",
"!@	c #B6A08D",
"~@	c #CBC7C4",
"{@	c #D0CCC7",
"]@	c #D1CCC6",
"^@	c #D2C0A3",
"/@	c #AE9A80",
"(@	c #8B715C",
"_@	c #544A41",
":@	c #242221",
"<@	c #3C2E23",
"[@	c #636363",
"}@	c #2F2924",
"|@	c #95765E",
"1@	c #E3DCD4",
"2@	c #ECECEC",
"3@	c #E1E1E1",
"4@	c #D1D0D0",
"5@	c #D0CFCF",
"6@	c #D1CCC4",
"7@	c #B59C7A",
"8@	c #94765F",
"9@	c #4D463F",
"0@	c #1C1C1B",
"a@	c #2A221B",
"b@	c #5A5B5B",
"c@	c #1F1C1A",
"d@	c #937559",
"e@	c #F5F3F0",
"f@	c #FDFEFE",
"g@	c #F4F4F4",
"h@	c #D5D4D4",
"i@	c #C7C0B3",
"j@	c #A59581",
"k@	c #89705D",
"l@	c #37322C",
"m@	c #1D1813",
"n@	c #D4B180",
"o@	c #514F4B",
"p@	c #0D0D0C",
"q@	c #664C34",
"r@	c #E5D6C3",
"s@	c #EFEFEF",
"t@	c #CFC9BC",
"u@	c #BBAE9B",
"v@	c #9F856E",
"w@	c #5E544A",
"x@	c #262523",
"y@	c #141210",
"z@	c #BF7C38",
"A@	c #443B29",
"B@	c #312921",
"C@	c #BC9874",
"D@	c #FAFAF9",
"E@	c #FCFDFD",
"F@	c #DEDDDD",
"G@	c #D1CDC4",
"H@	c #B8B7B4",
"I@	c #B09E87",
"J@	c #89705E",
"K@	c #3A352F",
"L@	c #141414",
"M@	c #0D0D0D",
"N@	c #9E612E",
"O@	c #302414",
"P@	c #6B4C32",
"Q@	c #DCD3C5",
"R@	c #EEEEEE",
"S@	c #D0CECE",
"T@	c #B9B8B5",
"U@	c #BBB0A1",
"V@	c #9F7F67",
"W@	c #56493D",
"X@	c #222222",
"Y@	c #050505",
"Z@	c #947659",
"`@	c #1F170F",
" #	c #131110",
".#	c #A68661",
"+#	c #E2E1DF",
"@#	c #FAFBFB",
"##	c #CFCECE",
"$#	c #B6B6B6",
"%#	c #AA9375",
"&#	c #755E4E",
"*#	c #2D2B28",
"=#	c #926C3E",
"-#	c #18140E",
";#	c #1E1914",
">#	c #C3A280",
",#	c #E6E6E5",
"'#	c #D2D1D1",
")#	c #ACA192",
"!#	c #88705C",
"~#	c #39332F",
"{#	c #171717",
"]#	c #825C2E",
"^#	c #F8CE7F",
"/#	c #17130D",
"(#	c #2E251C",
"_#	c #CDBCA0",
":#	c #EBEBEB",
"<#	c #D3D2D2",
"[#	c #BEA789",
"}#	c #957D6B",
"|#	c #453D34",
"1#	c #202020",
"2#	c #835823",
"3#	c #FBC251",
"4#	c #1E170F",
"5#	c #423224",
"6#	c #CEC4B2",
"7#	c #FBFCFC",
"8#	c #B8B8B6",
"9#	c #C1AF94",
"0#	c #9F856F",
"a#	c #282726",
"b#	c #8B5715",
"c#	c #D29849",
"d#	c #F7DEA1",
"e#	c #FCB837",
"f#	c #2A1E10",
"g#	c #5A422E",
"h#	c #D2C5B0",
"i#	c #F2F3F3",
"j#	c #D2CCC1",
"k#	c #B8B7B6",
"l#	c #BDB3A6",
"m#	c #918E8A",
"n#	c #64513F",
"o#	c #2A2928",
"p#	c #905915",
"q#	c #E4A146",
"r#	c #F9D27A",
"s#	c #FDB121",
"t#	c #3A2713",
"u#	c #080808",
"v#	c #694F37",
"w#	c #D2BD9D",
"x#	c #EDEDED",
"y#	c #E4E4E4",
"z#	c #B7B7B5",
"A#	c #BCB3A4",
"B#	c #918F8B",
"C#	c #7B5939",
"D#	c #2E2A27",
"E#	c #1A1A1A",
"F#	c #121212",
"G#	c #995D14",
"H#	c #EB901E",
"I#	c #F5CC8F",
"J#	c #F8DC9C",
"K#	c #FBC65C",
"L#	c #FDAE14",
"M#	c #744D15",
"N#	c #120C06",
"O#	c #1C1814",
"P#	c #8B6947",
"Q#	c #CDB390",
"R#	c #EAEAEA",
"S#	c #F5F6F6",
"T#	c #D3D3D3",
"U#	c #C7C4BF",
"V#	c #928E88",
"W#	c #905D2A",
"X#	c #432F1C",
"Y#	c #222120",
"Z#	c #D37709",
"`#	c #FD8F04",
" $	c #EF9F33",
".$	c #F3D7A4",
"+$	c #F8DDA3",
"@$	c #FBD372",
"#$	c #FCB943",
"$$	c #FEAD0C",
"%$	c #DF970F",
"&$	c #835516",
"*$	c #4C2F0F",
"=$	c #7C4D1A",
"-$	c #9B785A",
";$	c #C8AD7F",
">$	c #E3E2E0",
",$	c #DCDCDC",
"'$	c #C7C0B0",
")$	c #96897C",
"!$	c #985F21",
"~$	c #633C13",
"{$	c #452F18",
"]$	c #43311F",
"^$	c #A45813",
"/$	c #FA8D03",
"($	c #FE8F03",
"_$	c #F9900B",
":$	c #F6B247",
"<$	c #F5DAA4",
"[$	c #F8DCA0",
"}$	c #F3C764",
"|$	c #F8C75E",
"1$	c #FCB128",
"2$	c #FEAD0B",
"3$	c #FEAD0A",
"4$	c #FDAC0A",
"5$	c #E79615",
"6$	c #C4873A",
"7$	c #9F917C",
"8$	c #E5B55D",
"9$	c #DED5C2",
"0$	c #C0BBAD",
"a$	c #AEA396",
"b$	c #9A7553",
"c$	c #9B5C18",
"d$	c #975A17",
"e$	c #8E551A",
"f$	c #CD660F",
"g$	c #FB8603",
"h$	c #F69F24",
"i$	c #F6C66A",
"j$	c #F6DEAC",
"k$	c #FAD47A",
"l$	c #F5C75D",
"m$	c #FCBB48",
"n$	c #FCAA1A",
"o$	c #F29614",
"p$	c #F19913",
"q$	c #FCAB0C",
"r$	c #FDB62E",
"s$	c #F7BB4C",
"t$	c #F4B853",
"u$	c #FBC24F",
"v$	c #E6C780",
"w$	c #F1F0EE",
"x$	c #F7F7F7",
"y$	c #DCDBDB",
"z$	c #D0CABE",
"A$	c #B6B6B5",
"B$	c #AC8D6A",
"C$	c #96622E",
"D$	c #9B5C17",
"E$	c #A65F18",
"F$	c #DF6D0C",
"G$	c #FB8402",
"H$	c #F29318",
"I$	c #F7B744",
"J$	c #F8D99A",
"K$	c #F9D78B",
"L$	c #FBD370",
"M$	c #F5C560",
"N$	c #FCB137",
"O$	c #F1961B",
"P$	c #FD8F05",
"Q$	c #F39C15",
"R$	c #FCB529",
"S$	c #F8C656",
"T$	c #F5CE6E",
"U$	c #F8C859",
"V$	c #FBC753",
"W$	c #DFCB9F",
"X$	c #E2E2E2",
"Y$	c #D4D3D3",
"Z$	c #D1CECA",
"`$	c #C1BDB4",
" %	c #B6B5B4",
".%	c #B79A7A",
"+%	c #8F6742",
"@%	c #9A5C19",
"#%	c #AF6019",
"$%	c #ED6F07",
"%%	c #FD8703",
"&%	c #FA8F08",
"*%	c #F9AD2F",
"=%	c #F5CF7F",
"-%	c #F7DBA2",
";%	c #FBD57B",
">%	c #FBD36E",
",%	c #F9BA51",
"'%	c #F59B27",
")%	c #F88007",
"!%	c #FC8503",
"~%	c #FB9007",
"{%	c #F6A212",
"]%	c #FCBC38",
"^%	c #F5CB69",
"/%	c #F7CF6D",
"(%	c #F9C756",
"_%	c #FBC853",
":%	c #E8C77C",
"<%	c #DCCBA8",
"[%	c #D4CEC2",
"}%	c #D2CEC9",
"|%	c #D3CEC5",
"1%	c #DCC49E",
"2%	c #DFB477",
"3%	c #CBA77B",
"4%	c #BC9E81",
"5%	c #A67F59",
"6%	c #836A50",
"7%	c #985D1C",
"8%	c #B45D18",
"9%	c #F46F04",
"0%	c #FA8906",
"a%	c #F29418",
"b%	c #F1A018",
"c%	c #F39E13",
"d%	c #F6920C",
"e%	c #F0A028",
"f%	c #F5C361",
"g%	c #F7D99A",
"h%	c #F3CA6A",
"i%	c #F6C057",
"j%	c #FCA933",
"k%	c #F5790F",
"l%	c #F86E03",
"m%	c #F97703",
"n%	c #FD8A03",
"o%	c #F68F0D",
"p%	c #F7A614",
"q%	c #F8BF4B",
"r%	c #F7D06F",
"s%	c #F6CD6B",
"t%	c #FCC852",
"u%	c #FBC44E",
"v%	c #E3A445",
"w%	c #EA9E36",
"x%	c #E59638",
"y%	c #CB9050",
"z%	c #B78B61",
"A%	c #A78061",
"B%	c #907764",
"C%	c #7D6B5D",
"D%	c #856541",
"E%	c #AC5B19",
"F%	c #F46003",
"G%	c #F0921B",
"H%	c #FDAB0C",
"I%	c #F7A811",
"J%	c #F7910B",
"K%	c #F59D15",
"L%	c #FBBB43",
"M%	c #F9D487",
"N%	c #FCC34D",
"O%	c #FDB33A",
"P%	c #F89122",
"Q%	c #F86904",
"R%	c #F95900",
"S%	c #F95B00",
"T%	c #F86602",
"U%	c #F97303",
"V%	c #FD8903",
"W%	c #F6920E",
"X%	c #FAAC1B",
"Y%	c #F8C056",
"Z%	c #FAD16D",
"`%	c #F6C45A",
" &	c #C7873B",
".&	c #8C653A",
"+&	c #8F6231",
"@&	c #8A5E34",
"#&	c #71563F",
"$&	c #5E534B",
"%&	c #5B5048",
"&&	c #5D5044",
"*&	c #63513E",
"=&	c #735431",
"-&	c #925A1F",
";&	c #E65708",
">&	c #FA7001",
",&	c #FA8E08",
"'&	c #F9A113",
")&	c #FDAD0C",
"!&	c #F6A413",
"~&	c #F6900D",
"{&	c #F8990C",
"]&	c #FDB32D",
"^&	c #F4CE7C",
"/&	c #FEB53B",
"(&	c #FCA529",
"_&	c #F78F25",
":&	c #F4730D",
"<&	c #FA5600",
"[&	c #FA5500",
"}&	c #F86301",
"|&	c #F97403",
"1&	c #FD8C03",
"2&	c #F19815",
"3&	c #FCAF28",
"4&	c #FBB84C",
"5&	c #FCAC38",
"6&	c #AD6523",
"7&	c #835018",
"8&	c #382816",
"9&	c #1B1815",
"0&	c #151413",
"a&	c #282521",
"b&	c #40301F",
"c&	c #513B27",
"d&	c #754F32",
"e&	c #F75501",
"f&	c #FB7C02",
"g&	c #F18F13",
"h&	c #FCAA0C",
"i&	c #FDB025",
"j&	c #FDB339",
"k&	c #FDB026",
"l&	c #F59E1C",
"m&	c #F78F0E",
"n&	c #F5980F",
"o&	c #FDAE1D",
"p&	c #F7C96D",
"q&	c #FCDEA1",
"r&	c #FCAB43",
"s&	c #FB8F24",
"t&	c #F67E18",
"u&	c #F5670A",
"v&	c #F95700",
"w&	c #F86702",
"x&	c #FA7903",
"y&	c #FC8F05",
"z&	c #F4A21B",
"A&	c #FDB132",
"B&	c #FEB030",
"C&	c #BC7D34",
"D&	c #3F280F",
"E&	c #282623",
"F&	c #503113",
"G&	c #94420E",
"H&	c #F95C00",
"I&	c #FC8A03",
"J&	c #F49A14",
"K&	c #FDAC0B",
"L&	c #FCB841",
"M&	c #FCBB4B",
"N&	c #FCBA4B",
"O&	c #FCB94A",
"P&	c #FCB647",
"Q&	c #F8AA37",
"R&	c #F6A821",
"S&	c #FEAF1B",
"T&	c #FAC565",
"U&	c #FBB15D",
"V&	c #FB9F3C",
"W&	c #FB9126",
"X&	c #FB9026",
"Y&	c #F88C23",
"Z&	c #F77816",
"`&	c #F9710F",
" *	c #F17C15",
".*	c #F38E16",
"+*	c #F49623",
"@*	c #FEB02F",
"#*	c #FEB130",
"$*	c #FCB031",
"%*	c #BE822D",
"&*	c #634418",
"**	c #24190E",
"=*	c #110D09",
"-*	c #1B150E",
";*	c #382A1C",
">*	c #744118",
",*	c #A95615",
"'*	c #ED6F13",
")*	c #F78915",
"!*	c #F2991D",
"~*	c #FCAD19",
"{*	c #FAB535",
"]*	c #F7C156",
"^*	c #F5C75E",
"/*	c #F4C863",
"(*	c #F4C969",
"_*	c #F4CB70",
":*	c #F5CF79",
"<*	c #F8D486",
"[*	c #FBC45E",
"}*	c #FAC96F",
"|*	c #FCD489",
"1*	c #FBA84B",
"2*	c #FBA248",
"3*	c #FBB168",
"4*	c #FAA34C",
"5*	c #F9942F",
"6*	c #FB932B",
"7*	c #FCBB5C",
"8*	c #FDC465",
"9*	c #FDC25E",
"0*	c #FDC15D",
"a*	c #FAC060",
"b*	c #F1BB61",
"c*	c #EEBA62",
"d*	c #EEB964",
"e*	c #EFB967",
"f*	c #F2BE73",
"g*	c #F39D32",
"h*	c #FAA032",
"i*	c #F8A838",
"j*	c #FAB850",
"k*	c #F8CB75",
"l*	c #F7DCA2",
"m*	c #F9EACA",
"n*	c #FBD9B5",
"                                                                                                    ",
"                                                                                                    ",
"                                                                                                    ",
"                                                                                                    ",
"                                                                                                    ",
"                                                                                                    ",
"                                                                                                    ",
"                                            . + @ # $                                               ",
"                                        % & * = - ; > , '                                           ",
"                                    ) ! ~ { ] ^ ^ ^ ^ ] / (                                         ",
"                                  _ : < ] ^ ^ ^ ^ ] [ } | 1 2                                       ",
"                                  3 4 5 6 7 8 | 9 0 a b c d e f                                     ",
"                                g h i j k l m n o p q r s t u v                                     ",
"                              w x y z A B C D E F G H I J K L M N                                   ",
"                            O P Q R S T U V W X Y Z `  ...+.@.#.$.%.                                ",
"                          &.*.=.-.;.>.,.'.).!.~.{.].].].^./.(._.:.<.[.}.                            ",
"                      |.1.2.3.-.-.4.5.6.7.8.9.0.a.b.c.d.e.f.g.h.i.j.k.l.m.                          ",
"                  n.o.p.q.r.-.-.-.s.t.u.v.w.x.y.z.A.B.C.D.E.F.G.] H.I.J.K.L.M.                      ",
"              N.O.P.Q.R.S.T.U.V.W.V.X.Y.Z.`. +.+++@+#+$+%+&+*+=+^ ^ ^ ^ ] -+;+>+,+                  ",
"          '+)+!+~+{+^ ^ ^ ^ ^ ^ ^ ^ ^ ^ ]+^+/+(+_+:+<+[+}+^ ^ ^ ^ ^ ^ ^ ^ ^ ^ |+1+2+3+              ",
"      4+5+6+7+{+^ ^ ^ ^ ^ ^ ^ ^ ^ ^ ^ ^ ^ 8+9+0+a+a+b+c+^ ^ ^ ^ ^ ^ ^ ^ d+e+H.^ ^ f+g+h+            ",
"      i+j+k+l+| m+n+G.^ ^ ^ ^ ^ ^ ^ ^ ^ ^ ^ ^ ^ ^ ^ ^ ^ ^ ^ ^ ^ ^ ^ ^ c+o+p+q+r+s+] =+t+u+v+        ",
"    w+x+y+z+A+B+C+    D+^ ^ ^ ^ ^ ^ ^ ^ ^ E+F+G+H+j+I+J+^ ^ ^ ^ ^ ^ ^ ] K+L+M+N+O+P+Q+R+S+T+U+      ",
"                      V+^ ^ ^ ^ ^ ^ ^ W+X+Y+Z+`+ @.@+@@@#@H.^ ^ ^ ^ ^ ] $@        %@&@*@=@-@;@      ",
"                      >@^ ^ ^ ^ ^ ^ ,@'@)@!@~@{@]@^@/@(@_@:@H.^ ^ ^ ^ ^ <@                          ",
"                      [@^ ^ ^ ^ ^ ] }@|@1@2@3@4@5@5@6@7@8@9@0@] ^ ^ ^ ^ a@                          ",
"                      b@^ ^ ^ ^ ^ c@d@e@f@f@f@g@h@5@5@i@j@k@l@m+^ ^ ^ ^ m@n@                        ",
"                      o@^ ^ ^ ^ p@q@r@f@f@f@f@f@s@4@5@t@u@v@w@x@H.^ ^ ^ y@z@                        ",
"                      A@^ ^ ^ ^ B@C@D@f@f@f@f@f@E@F@5@G@H@I@J@K@L@^ ^ ^ M@N@                        ",
"                      O@^ ^ ^ |+P@Q@E@f@f@f@f@f@f@R@4@S@T@U@V@W@X@Y@^ ^ { Z@                        ",
"                      `@^ ^ ^  #.#+#f@f@f@f@f@f@f@@#4@##T@$#%#&#*#M@^ ^ H.=#                        ",
"                      -#^ ^ ^ ;#>#,#f@f@f@f@f@f@f@f@'###T@$#)#!#~#{#^ ^ Y@]#                        ",
"                    ^#/#^ ^ ^ (#_#:#f@f@f@f@f@f@f@f@<###T@$#[#}#|#1#^ ^ Y@2#                        ",
"                    3#4#^ ^ ^ 5#6#s@f@f@f@f@f@f@f@7#4@##8#$#9#0#& a#Y@^ H.b#c#                      ",
"                  d#e#f#^ ^ ^ g#h#s@f@f@f@f@f@f@f@i#4@j#k#$#l#m#n#o#l+^ -+p#q#                      ",
"                  r#s#t#] ^ u#v#w#x#f@f@f@f@f@f@f@y#5@t@z#$#A#B#C#D#E#] F#G#H#I#                    ",
"                J#K#L#M#N#^ O#P#Q#R#f@f@f@f@f@f@S#T#5@U#$#$#9#V#W#X#D+F#Y#Z#`# $.$                  ",
"              +$@$#$$$%$&$*$=$-$;$>$f@f@f@f@f@7#,$5@5@'$$#$#[#)$!$~${$]$^$/$($_$:$<$                ",
"            [$}$|$1$2$3$4$5$6$7$8$9$E@f@f@f@7#,$5@5@5@0$$#$#a$b$c$d$e$f$g$($($`#h$i$                ",
"          j$k$l$m$n$o$p$q$r$s$t$u$v$w$f@f@x$y$5@5@5@z$A$$#A$B$C$D$E$F$G$($($($($H$I$J$              ",
"          K$L$M$N$O$P$`#Q$R$S$T$U$V$W$,#X$Y$5@5@5@Z$`$$# %.%+%@%#%$%%%($($($($($&%*%=%-%            ",
"          ;%>%,%'%)%!%($~%{%]%^%/%(%_%:%<%[%}%|%1%2%3%4%5%6%7%8%9%0%a%b%c%d%($($($e%f%g%            ",
"          h%i%j%k%l%l%m%n%o%p%q%r%s%t%u%v%w%x%y%z%A%B%C%D%@%E%F%%%G%H%3$3$I%J%($($K%L%M%            ",
"          N%O%P%Q%R%S%T%U%V%W%X%Y%Z%`% &.&+&@&#&$&%&&&*&=&-&;&>&,&'&3$2$)&2$!&~&(${&]&^&            ",
"          /&(&_&:&<&[&[&}&|&1&2&3&4&5&6&7&8&9&0&n+0@a&b&c&d&e&f&g&h&$$i&j&O%k&l&m&n&o&p&q&          ",
"            r&s&$+t&u&v&<&w&x&y&z&A&B&C&D&^ ^ ^ ^ ^ Y@E&F&G&H&I&J&K&i&L&M&N&O&P&Q&R&S&T&            ",
"              U&V&W&X&Y&Z&`& *.*+*@*#*$*%*&***=**+-*;*>*,*'*)*!*~*{*]*^*/*(*_*:*<*[*}*|*            ",
"                      1*2*3*4*5*6*7*8*9*0*a*b*c*d*e*f*g*h*i*j*k*l*m*                                ",
"                                n*                                                                  ",
"                                                                                                    "};
